<?xml version="1.0" encoding="UTF-8" standalone="no"?>
<!DOCTYPE svg PUBLIC "-//W3C//DTD SVG 1.1//EN"
 "http://www.w3.org/Graphics/SVG/1.1/DTD/svg11.dtd">
<!-- Generated by graphviz version 2.38.0 (20140413.2041)
 -->
<!-- Title: G Pages: 1 -->
<svg width="307pt" height="150pt"
 viewBox="0.00 0.00 307.09 150.00" xmlns="http://www.w3.org/2000/svg" xmlns:xlink="http://www.w3.org/1999/xlink">
<g id="graph0" class="graph" transform="scale(1 1) rotate(0) translate(4 146)">
<title>G</title>
<polygon fill="white" stroke="none" points="-4,4 -4,-146 303.091,-146 303.091,4 -4,4"/>
<g id="clust1" class="cluster"><title>cluster_Global</title>
<path fill="none" stroke="gray" d="M176.091,-8C176.091,-8 279.091,-8 279.091,-8 285.091,-8 291.091,-14 291.091,-20 291.091,-20 291.091,-122 291.091,-122 291.091,-128 285.091,-134 279.091,-134 279.091,-134 176.091,-134 176.091,-134 170.091,-134 164.091,-128 164.091,-122 164.091,-122 164.091,-20 164.091,-20 164.091,-14 170.091,-8 176.091,-8"/>
<text text-anchor="middle" x="227.591" y="-121.2" font-family="Times New Roman,serif" font-size="11.00" fill="gray">Global</text>
</g>
<!-- \\osp -->
<g id="node1" class="node"><title>\\osp</title>
<polygon fill="none" stroke="black" points="254.591,-106 200.591,-106 200.591,-70 254.591,-70 254.591,-106"/>
<text text-anchor="middle" x="227.591" y="-85.2" font-family="Courier,monospace" font-size="11.00">osp</text>
</g>
<!-- \\repository_osp -->
<g id="node2" class="node"><title>\\repository_osp</title>
<polygon fill="none" stroke="black" points="283.091,-52 172.091,-52 172.091,-16 283.091,-16 283.091,-52"/>
<text text-anchor="middle" x="227.591" y="-31.2" font-family="Courier,monospace" font-size="11.00">repository_osp</text>
</g>
<!-- \\repository -->
<g id="node3" class="node"><title>\\repository</title>
<ellipse fill="none" stroke="black" cx="50.0456" cy="-34" rx="50.0912" ry="18"/>
<text text-anchor="middle" x="50.0456" y="-30.3" font-family="Times New Roman,serif" font-size="14.00" fill="gray">\repository</text>
</g>
<!-- \\repository_osp&#45;&gt;\\repository -->
<g id="edge1" class="edge"><title>\\repository_osp&#45;&gt;\\repository</title>
<path fill="none" stroke="black" d="M172.01,-34C152.468,-34 130.353,-34 110.425,-34"/>
<polygon fill="none" stroke="black" points="110.229,-30.5001 100.229,-34 110.229,-37.5001 110.229,-30.5001"/>
</g>
</g>
</svg>
