<?xml version="1.0" encoding="utf-8"?>
<!-- Generator: Adobe Illustrator 13.0.1, SVG Export Plug-In . SVG Version: 6.00 Build 14948)  -->
<!DOCTYPE svg PUBLIC "-//W3C//DTD SVG 1.1//EN" "http://www.w3.org/Graphics/SVG/1.1/DTD/svg11.dtd" [
	<!ENTITY st0 "enable-background:new    ;">
	<!ENTITY st1 "fill:#FFFFFF;">
	<!ENTITY st2 "fill:#00563F;">
]>
<svg version="1.1" id="Capa_1" xmlns="http://www.w3.org/2000/svg" xmlns:xlink="http://www.w3.org/1999/xlink" x="0px" y="0px"
	 width="24px" height="24px" viewBox="0 0 24 24" style="enable-background:new 0 0 24 24;" xml:space="preserve">
<rect x="-0.5" y="-0.5" style="&st2;" width="24" height="24.2"/>
<g style="&st0;">
	<g id="XMLID_1_">
		<g>
			<path style="&st1;" d="M20.8,12c0-2-0.5-3-1.6-3c-0.5,0-0.9,0.3-1.2,0.8c-0.3,0.5-0.5,1.3-0.5,2.2v0.9c0,0.8,0.1,1.4,0.4,1.9
				c0.3,0.5,0.6,0.7,1.1,0.7c0.5,0,1-0.3,1.2-0.9C20.6,14,20.8,13.1,20.8,12z M22.4,7.8c0.5,1,0.8,2.4,0.8,4.1
				c0,1.9-0.3,3.4-0.9,4.6c-0.6,1.2-1.5,1.7-2.5,1.7c-0.9,0-1.6-0.5-2.1-1.6h0v6.6h-2.3V6.5h2.3v1.7h0c0.6-1.3,1.4-2,2.4-2
				C21.1,6.3,21.8,6.8,22.4,7.8z"/>
		</g>
		<g>
		</g>
	</g>
</g>
<g style="&st0;">
	<g id="XMLID_2_">
		<g>
			<path style="&st1;" d="M5.7,11.7c0-2.1-0.6-3.2-1.7-3.2c-0.5,0-0.9,0.3-1.3,0.9c-0.3,0.6-0.4,1.4-0.4,2.4c0,2.2,0.6,3.3,1.7,3.3
				C5.1,15.1,5.7,13.9,5.7,11.7z M7,7.4c0.7,1.1,1,2.5,1,4.3c0,1.9-0.4,3.4-1.1,4.5c-0.7,1.1-1.7,1.7-2.9,1.7
				c-1.2,0-2.2-0.5-2.9-1.6c-0.7-1.1-1-2.5-1-4.4c0-1.9,0.4-3.4,1.1-4.4c0.7-1.1,1.7-1.6,3-1.6C5.3,5.8,6.3,6.3,7,7.4z"/>
		</g>
		<g>
		</g>
	</g>
</g>
<g style="&st0;">
	<g id="XMLID_3_">
		<g>
			<path style="&st1;" d="M14.8,13c0.1,0.3,0.2,0.8,0.2,1.3c0,0.7-0.1,1.3-0.3,1.8c-0.2,0.5-0.5,0.9-0.9,1.2
				c-0.4,0.3-0.8,0.5-1.3,0.7c-0.5,0.1-1,0.2-1.5,0.2c-1,0-1.9-0.2-2.7-0.6v-2.9c0.4,0.4,0.9,0.6,1.3,0.8s0.9,0.3,1.3,0.3
				c0.5,0,0.9-0.1,1.1-0.3c0.3-0.2,0.4-0.4,0.4-0.8c0-0.2-0.1-0.4-0.2-0.6c-0.1-0.2-0.3-0.3-0.5-0.4c-0.2-0.1-0.4-0.2-0.6-0.3
				c-0.2-0.1-0.5-0.2-0.7-0.3c-0.4-0.2-0.7-0.4-0.9-0.6C9.2,12.3,9,12,8.8,11.8c-0.2-0.3-0.3-0.6-0.4-0.9c-0.1-0.3-0.1-0.8-0.1-1.2
				C8.3,9,8.4,8.5,8.6,8c0.2-0.5,0.5-0.9,0.9-1.1c0.4-0.3,0.8-0.5,1.2-0.6C11.1,6,11.6,6,12.1,6c0.4,0,0.8,0,1.2,0.1
				c0.4,0.1,0.8,0.2,1.2,0.3v2.7c-0.3-0.3-0.7-0.5-1.1-0.6c-0.4-0.1-0.8-0.2-1.2-0.2c-0.2,0-0.3,0-0.5,0.1s-0.3,0.1-0.4,0.2
				S11.1,8.8,11,8.9c-0.1,0.1-0.1,0.3-0.1,0.4c0,0.2,0,0.4,0.1,0.5c0.1,0.1,0.2,0.3,0.4,0.4c0.2,0.1,0.3,0.2,0.5,0.3
				c0.2,0.1,0.4,0.2,0.6,0.3c0.4,0.2,0.7,0.3,1,0.5c0.3,0.2,0.5,0.4,0.8,0.7C14.6,12.3,14.7,12.6,14.8,13z"/>
		</g>
		<g>
		</g>
	</g>
</g>
</svg>
